<svg width="73" height="47" viewBox="0 0 73 47" fill="none" xmlns="http://www.w3.org/2000/svg">
<path d="M4.66633 46.5005H68.3589C70.5483 46.5005 72.3397 44.7759 72.3397 42.668C72.3397 40.5601 70.5483 38.8354 68.3589 38.8354H4.66633C2.4769 38.8354 0.685547 40.5601 0.685547 42.668C0.685547 44.7759 2.4769 46.5005 4.66633 46.5005ZM4.66633 27.3377H68.3589C70.5483 27.3377 72.3397 25.6131 72.3397 23.5051C72.3397 21.3972 70.5483 19.6726 68.3589 19.6726H4.66633C2.4769 19.6726 0.685547 21.3972 0.685547 23.5051C0.685547 25.6131 2.4769 27.3377 4.66633 27.3377ZM0.685547 4.34233C0.685547 6.45024 2.4769 8.17489 4.66633 8.17489H68.3589C70.5483 8.17489 72.3397 6.45024 72.3397 4.34233C72.3397 2.23442 70.5483 0.509766 68.3589 0.509766H4.66633C2.4769 0.509766 0.685547 2.23442 0.685547 4.34233Z" fill="white"/>
</svg>
