<svg width="26" height="26" viewBox="0 0 26 26" fill="none" xmlns="http://www.w3.org/2000/svg">
<path d="M25.5441 14.101L20.0849 19.5602C19.9401 19.7052 19.7682 19.8203 19.5789 19.8988C19.3896 19.9773 19.1867 20.0178 18.9818 20.0178C18.7768 20.0179 18.5739 19.9776 18.3846 19.8992C18.1952 19.8208 18.0232 19.7059 17.8783 19.561C17.7334 19.4161 17.6184 19.244 17.5401 19.0547C17.4617 18.8654 17.4214 18.6624 17.4214 18.4575C17.4215 18.2526 17.4619 18.0497 17.5405 17.8604C17.619 17.6711 17.734 17.4991 17.879 17.3543L20.6755 14.5578H9.87952C9.46584 14.5578 9.06911 14.3935 8.77659 14.101C8.48408 13.8085 8.31975 13.4118 8.31975 12.9981C8.31975 12.5844 8.48408 12.1877 8.77659 11.8952C9.06911 11.6026 9.46584 11.4383 9.87952 11.4383H20.6755L17.8791 8.64182C17.734 8.49702 17.619 8.32506 17.5405 8.13577C17.462 7.94649 17.4215 7.74359 17.4214 7.53866C17.4214 7.33373 17.4617 7.1308 17.5401 6.94146C17.6184 6.75212 17.7334 6.58008 17.8783 6.43518C18.0232 6.29028 18.1952 6.17535 18.3846 6.09696C18.5739 6.01857 18.7768 5.97826 18.9818 5.97833C19.1867 5.9784 19.3896 6.01885 19.5789 6.09738C19.7682 6.1759 19.9401 6.29095 20.0849 6.43595L25.5441 11.8951C25.689 12.04 25.8039 12.2119 25.8822 12.4012C25.9606 12.5904 26.001 12.7932 26.001 12.9981C26.001 13.2029 25.9606 13.4057 25.8822 13.595C25.8038 13.7842 25.6889 13.9562 25.5441 14.101ZM11.9592 22.8766H3.12052V3.11954H11.9592C12.3729 3.11954 12.7696 2.95521 13.0621 2.66269C13.3546 2.37018 13.519 1.97345 13.519 1.55977C13.519 1.14609 13.3546 0.749359 13.0621 0.456846C12.7696 0.164332 12.3729 0 11.9592 0H2.60059C1.91137 0.000766861 1.25059 0.2749 0.763233 0.762257C0.275877 1.24961 0.00174342 1.91039 0.000976562 2.59962V23.3965C0.00174342 24.0858 0.275877 24.7465 0.763233 25.2339C1.25059 25.7213 1.91137 25.9954 2.60059 25.9962H11.9592C12.3729 25.9962 12.7696 25.8318 13.0621 25.5393C13.3546 25.2468 13.519 24.8501 13.519 24.4364C13.519 24.0227 13.3546 23.626 13.0621 23.3335C12.7696 23.041 12.3729 22.8766 11.9592 22.8766Z" fill="#252424"/>
</svg>
