<svg width="26" height="26" viewBox="0 0 26 26" fill="none" xmlns="http://www.w3.org/2000/svg">
<mask id="path-1-inside-1_10_245" fill="white">
<path d="M25.6577 16.3048L23.6499 14.6797C23.7449 14.1283 23.7939 13.5653 23.7939 13.0024C23.7939 12.4394 23.7449 11.8764 23.6499 11.325L25.6577 9.69989C25.8091 9.57716 25.9175 9.41369 25.9684 9.23122C26.0193 9.04875 26.0104 8.85593 25.9427 8.67839L25.9151 8.60294C25.3624 7.14042 24.5347 5.78463 23.4721 4.6011L23.4169 4.54016C23.288 4.39666 23.1162 4.29351 22.9241 4.24429C22.7321 4.19508 22.5287 4.20211 22.341 4.26447L19.8489 5.10314C18.9293 4.38926 17.9024 3.82627 16.7928 3.4316L16.3115 0.964911C16.2752 0.779306 16.1801 0.608554 16.0388 0.475339C15.8976 0.342124 15.7169 0.252754 15.5207 0.2191L15.4379 0.20459C13.8409 -0.0681967 12.1611 -0.0681967 10.5641 0.20459L10.4813 0.2191C10.2851 0.252754 10.1044 0.342124 9.96311 0.475339C9.82185 0.608554 9.72675 0.779306 9.69044 0.964911L9.20612 3.44321C8.10533 3.83796 7.08022 4.40065 6.17146 5.10895L3.66097 4.26447C3.47326 4.20162 3.2698 4.19433 3.07762 4.24357C2.88544 4.29282 2.71364 4.39626 2.58504 4.54016L2.52987 4.6011C1.46849 5.78547 0.640947 7.14103 0.0868115 8.60294L0.0592237 8.67839C-0.0787154 9.04114 0.0347012 9.44742 0.344298 9.69989L2.3766 11.3424C2.28158 11.888 2.2356 12.4452 2.2356 12.9995C2.2356 13.5566 2.28158 14.1138 2.3766 14.6565L0.344298 16.299C0.192858 16.4217 0.084471 16.5852 0.0335486 16.7677C-0.0173738 16.9502 -0.00841863 17.143 0.0592237 17.3205L0.0868115 17.396C0.641633 18.8586 1.46314 20.208 2.52987 21.3978L2.58504 21.4587C2.71395 21.6022 2.88576 21.7054 3.07783 21.7546C3.2699 21.8038 3.47321 21.7968 3.66097 21.7344L6.17146 20.89C7.08492 21.6009 8.10567 22.1639 9.20612 22.5557L9.69044 25.034C9.72675 25.2196 9.82185 25.3904 9.96311 25.5236C10.1044 25.6568 10.2851 25.7462 10.4813 25.7798L10.5641 25.7943C12.1758 26.0686 13.8262 26.0686 15.4379 25.7943L15.5207 25.7798C15.7169 25.7462 15.8976 25.6568 16.0388 25.5236C16.1801 25.3904 16.2752 25.2196 16.3115 25.034L16.7928 22.5673C17.902 22.1737 18.9346 21.6088 19.8489 20.8958L22.341 21.7344C22.5287 21.7973 22.7321 21.8046 22.9243 21.7553C23.1165 21.7061 23.2883 21.6026 23.4169 21.4587L23.4721 21.3978C24.5388 20.2051 25.3603 18.8586 25.9151 17.396L25.9427 17.3205C26.0807 16.9636 25.9673 16.5573 25.6577 16.3048ZM21.4735 11.6674C21.5501 12.1056 21.59 12.5554 21.59 13.0053C21.59 13.4551 21.5501 13.9049 21.4735 14.3431L21.2712 15.5068L23.561 17.3611C23.2139 18.1182 22.7757 18.8349 22.2552 19.497L19.4105 18.5422L18.448 19.291C17.7154 19.8597 16.9001 20.3067 16.0172 20.6201L14.8494 21.0351L14.3007 23.85C13.4349 23.9428 12.5609 23.9428 11.6952 23.85L11.1465 21.0293L9.98777 20.6085C9.11416 20.295 8.30185 19.8481 7.57537 19.2823L6.61286 18.5306L3.74986 19.4941C3.22876 18.8295 2.79348 18.1128 2.44404 17.3582L4.75835 15.4865L4.5591 14.3257C4.48554 13.8933 4.44569 13.4464 4.44569 13.0053C4.44569 12.5613 4.48247 12.1172 4.5591 11.6849L4.75835 10.5241L2.44404 8.65227C2.79042 7.89486 3.22876 7.18097 3.74986 6.51641L6.61286 7.47987L7.57537 6.72826C8.30185 6.16237 9.11416 5.71546 9.98777 5.40205L11.1495 4.98706L11.6982 2.16633C12.5596 2.07347 13.4393 2.07347 14.3037 2.16633L14.8524 4.98126L16.0203 5.39625C16.9001 5.70966 17.7185 6.15657 18.4511 6.72536L19.4136 7.47407L22.2582 6.51931C22.7793 7.18387 23.2146 7.90066 23.564 8.65518L21.2743 10.5095L21.4735 11.6674ZM13.004 7.60756C10.0246 7.60756 7.60909 9.89433 7.60909 12.7151C7.60909 15.5358 10.0246 17.8226 13.004 17.8226C15.9835 17.8226 18.399 15.5358 18.399 12.7151C18.399 9.89433 15.9835 7.60756 13.004 7.60756ZM15.4318 15.0134C15.1134 15.3158 14.7349 15.5555 14.3183 15.7188C13.9017 15.8822 13.455 15.9659 13.004 15.9653C12.0875 15.9653 11.2262 15.6258 10.5763 15.0134C10.257 14.712 10.0038 14.3537 9.83121 13.9593C9.65866 13.5648 9.57019 13.142 9.57089 12.7151C9.57089 11.8474 9.92953 11.0319 10.5763 10.4167C11.2262 9.80146 12.0875 9.46483 13.004 9.46483C13.9206 9.46483 14.7819 9.80146 15.4318 10.4167C15.7511 10.7181 16.0043 11.0764 16.1769 11.4708C16.3494 11.8653 16.4379 12.2881 16.4372 12.7151C16.4372 13.5828 16.0786 14.3982 15.4318 15.0134Z"/>
</mask>
<path d="M25.6577 16.3048L23.6499 14.6797C23.7449 14.1283 23.7939 13.5653 23.7939 13.0024C23.7939 12.4394 23.7449 11.8764 23.6499 11.325L25.6577 9.69989C25.8091 9.57716 25.9175 9.41369 25.9684 9.23122C26.0193 9.04875 26.0104 8.85593 25.9427 8.67839L25.9151 8.60294C25.3624 7.14042 24.5347 5.78463 23.4721 4.6011L23.4169 4.54016C23.288 4.39666 23.1162 4.29351 22.9241 4.24429C22.7321 4.19508 22.5287 4.20211 22.341 4.26447L19.8489 5.10314C18.9293 4.38926 17.9024 3.82627 16.7928 3.4316L16.3115 0.964911C16.2752 0.779306 16.1801 0.608554 16.0388 0.475339C15.8976 0.342124 15.7169 0.252754 15.5207 0.2191L15.4379 0.20459C13.8409 -0.0681967 12.1611 -0.0681967 10.5641 0.20459L10.4813 0.2191C10.2851 0.252754 10.1044 0.342124 9.96311 0.475339C9.82185 0.608554 9.72675 0.779306 9.69044 0.964911L9.20612 3.44321C8.10533 3.83796 7.08022 4.40065 6.17146 5.10895L3.66097 4.26447C3.47326 4.20162 3.2698 4.19433 3.07762 4.24357C2.88544 4.29282 2.71364 4.39626 2.58504 4.54016L2.52987 4.6011C1.46849 5.78547 0.640947 7.14103 0.0868115 8.60294L0.0592237 8.67839C-0.0787154 9.04114 0.0347012 9.44742 0.344298 9.69989L2.3766 11.3424C2.28158 11.888 2.2356 12.4452 2.2356 12.9995C2.2356 13.5566 2.28158 14.1138 2.3766 14.6565L0.344298 16.299C0.192858 16.4217 0.084471 16.5852 0.0335486 16.7677C-0.0173738 16.9502 -0.00841863 17.143 0.0592237 17.3205L0.0868115 17.396C0.641633 18.8586 1.46314 20.208 2.52987 21.3978L2.58504 21.4587C2.71395 21.6022 2.88576 21.7054 3.07783 21.7546C3.2699 21.8038 3.47321 21.7968 3.66097 21.7344L6.17146 20.89C7.08492 21.6009 8.10567 22.1639 9.20612 22.5557L9.69044 25.034C9.72675 25.2196 9.82185 25.3904 9.96311 25.5236C10.1044 25.6568 10.2851 25.7462 10.4813 25.7798L10.5641 25.7943C12.1758 26.0686 13.8262 26.0686 15.4379 25.7943L15.5207 25.7798C15.7169 25.7462 15.8976 25.6568 16.0388 25.5236C16.1801 25.3904 16.2752 25.2196 16.3115 25.034L16.7928 22.5673C17.902 22.1737 18.9346 21.6088 19.8489 20.8958L22.341 21.7344C22.5287 21.7973 22.7321 21.8046 22.9243 21.7553C23.1165 21.7061 23.2883 21.6026 23.4169 21.4587L23.4721 21.3978C24.5388 20.2051 25.3603 18.8586 25.9151 17.396L25.9427 17.3205C26.0807 16.9636 25.9673 16.5573 25.6577 16.3048ZM21.4735 11.6674C21.5501 12.1056 21.59 12.5554 21.59 13.0053C21.59 13.4551 21.5501 13.9049 21.4735 14.3431L21.2712 15.5068L23.561 17.3611C23.2139 18.1182 22.7757 18.8349 22.2552 19.497L19.4105 18.5422L18.448 19.291C17.7154 19.8597 16.9001 20.3067 16.0172 20.6201L14.8494 21.0351L14.3007 23.85C13.4349 23.9428 12.5609 23.9428 11.6952 23.85L11.1465 21.0293L9.98777 20.6085C9.11416 20.295 8.30185 19.8481 7.57537 19.2823L6.61286 18.5306L3.74986 19.4941C3.22876 18.8295 2.79348 18.1128 2.44404 17.3582L4.75835 15.4865L4.5591 14.3257C4.48554 13.8933 4.44569 13.4464 4.44569 13.0053C4.44569 12.5613 4.48247 12.1172 4.5591 11.6849L4.75835 10.5241L2.44404 8.65227C2.79042 7.89486 3.22876 7.18097 3.74986 6.51641L6.61286 7.47987L7.57537 6.72826C8.30185 6.16237 9.11416 5.71546 9.98777 5.40205L11.1495 4.98706L11.6982 2.16633C12.5596 2.07347 13.4393 2.07347 14.3037 2.16633L14.8524 4.98126L16.0203 5.39625C16.9001 5.70966 17.7185 6.15657 18.4511 6.72536L19.4136 7.47407L22.2582 6.51931C22.7793 7.18387 23.2146 7.90066 23.564 8.65518L21.2743 10.5095L21.4735 11.6674ZM13.004 7.60756C10.0246 7.60756 7.60909 9.89433 7.60909 12.7151C7.60909 15.5358 10.0246 17.8226 13.004 17.8226C15.9835 17.8226 18.399 15.5358 18.399 12.7151C18.399 9.89433 15.9835 7.60756 13.004 7.60756ZM15.4318 15.0134C15.1134 15.3158 14.7349 15.5555 14.3183 15.7188C13.9017 15.8822 13.455 15.9659 13.004 15.9653C12.0875 15.9653 11.2262 15.6258 10.5763 15.0134C10.257 14.712 10.0038 14.3537 9.83121 13.9593C9.65866 13.5648 9.57019 13.142 9.57089 12.7151C9.57089 11.8474 9.92953 11.0319 10.5763 10.4167C11.2262 9.80146 12.0875 9.46483 13.004 9.46483C13.9206 9.46483 14.7819 9.80146 15.4318 10.4167C15.7511 10.7181 16.0043 11.0764 16.1769 11.4708C16.3494 11.8653 16.4379 12.2881 16.4372 12.7151C16.4372 13.5828 16.0786 14.3982 15.4318 15.0134Z" fill="#252424" stroke="black" stroke-width="2" mask="url(#path-1-inside-1_10_245)"/>
</svg>
