<svg width="45" height="44" viewBox="0 0 45 44" fill="none" xmlns="http://www.w3.org/2000/svg">
<path d="M42.2186 26.7225L44.7642 12.3435C44.8457 11.883 44.8277 11.4098 44.7115 10.9572C44.5953 10.5047 44.3837 10.0839 44.0917 9.72459C43.7997 9.36528 43.4344 9.07622 43.0216 8.87786C42.6089 8.6795 42.1587 8.57667 41.703 8.57665H9.0854L8.13572 3.21216C8.00568 2.47576 7.62795 1.80966 7.06846 1.33011C6.50898 0.850567 5.80327 0.588048 5.07454 0.588379H1.56444C1.15186 0.588379 0.756171 0.756703 0.464429 1.05632C0.172688 1.35594 0.00878906 1.76231 0.00878906 2.18603C0.00878906 2.60976 0.172688 3.01613 0.464429 3.31575C0.756171 3.61536 1.15186 3.78369 1.56444 3.78369H5.07454L10.2669 33.113C10.3134 33.3724 10.3909 33.625 10.4978 33.8649C9.72104 34.5388 9.14366 35.4228 8.83106 36.4165C8.51845 37.4103 8.48313 38.4741 8.72909 39.4874C8.97504 40.5007 9.49245 41.423 10.2227 42.1497C10.9529 42.8765 11.8667 43.3787 12.8606 43.5994C13.8545 43.8201 14.8887 43.7504 15.846 43.3984C16.8034 43.0463 17.6456 42.4259 18.2771 41.6075C18.9087 40.789 19.3045 39.8053 19.4195 38.7677C19.5346 37.7301 19.3643 36.6801 18.9281 35.7368H32.4261C31.9206 36.8314 31.775 38.0651 32.0112 39.252C32.2474 40.439 32.8526 41.5151 33.7357 42.3183C34.6188 43.1215 35.7321 43.6084 36.908 43.7057C38.0838 43.803 39.2586 43.5054 40.2555 42.8577C41.2525 42.21 42.0176 41.2473 42.4358 40.1145C42.8539 38.9816 42.9025 37.7399 42.5741 36.5763C42.2457 35.4127 41.5582 34.3901 40.6151 33.6624C39.6719 32.9347 38.5241 32.5413 37.3445 32.5415H13.3281L12.7624 29.3462H39.1574C39.8862 29.3465 40.5919 29.084 41.1513 28.6045C41.7108 28.1249 42.0886 27.4588 42.2186 26.7225ZM16.3432 38.1333C16.3432 38.6072 16.2063 39.0706 15.9499 39.4647C15.6935 39.8588 15.329 40.1659 14.9027 40.3473C14.4763 40.5287 14.0071 40.5762 13.5544 40.4837C13.1018 40.3912 12.686 40.163 12.3597 39.8278C12.0333 39.4927 11.8111 39.0657 11.721 38.6008C11.631 38.1359 11.6772 37.6541 11.8538 37.2162C12.0304 36.7783 12.3295 36.404 12.7133 36.1407C13.097 35.8773 13.5482 35.7368 14.0097 35.7368C14.6283 35.7375 15.2215 35.9902 15.6589 36.4395C16.0964 36.8887 16.3425 37.4979 16.3432 38.1333ZM39.678 38.1333C39.678 38.6072 39.5411 39.0706 39.2847 39.4647C39.0283 39.8588 38.6638 40.1659 38.2375 40.3473C37.8111 40.5287 37.3419 40.5762 36.8892 40.4837C36.4366 40.3912 36.0208 40.163 35.6945 39.8278C35.3681 39.4927 35.1459 39.0657 35.0558 38.6008C34.9658 38.1359 35.012 37.6541 35.1886 37.2162C35.3652 36.7783 35.6643 36.404 36.0481 36.1407C36.4318 35.8773 36.883 35.7368 37.3445 35.7368C37.9631 35.7375 38.5563 35.9902 38.9937 36.4395C39.4312 36.8887 39.6773 37.4979 39.678 38.1333ZM9.65111 11.772H41.703L39.1574 26.1508H12.1967L9.65111 11.772Z" fill="white"/>
</svg>
