<svg width="40" height="40" viewBox="0 0 40 40" fill="none" xmlns="http://www.w3.org/2000/svg">
<g clip-path="url(#clip0_233_485)">
<path d="M20 39.375C30.7005 39.375 39.375 30.7005 39.375 20C39.375 9.29948 30.7005 0.625 20 0.625C9.29948 0.625 0.625 9.29948 0.625 20C0.625 30.7005 9.29948 39.375 20 39.375Z" fill="#FF4500"/>
<path d="M33.0117 19.9639C33.0117 18.4137 31.7452 17.1536 30.1887 17.1536C29.429 17.1536 28.7405 17.4575 28.2337 17.9462C26.3105 16.6808 23.7085 15.8754 20.827 15.7724L22.4027 10.8115L26.6697 11.8114L26.6633 11.873C26.6633 13.1405 27.6992 14.1712 28.9732 14.1712C30.246 14.1712 31.2809 13.1405 31.2809 11.873C31.2809 10.6054 30.245 9.57373 28.9732 9.57373C27.9957 9.57373 27.1627 10.1836 26.8258 11.0389L22.2263 9.96048C22.0255 9.91161 21.8215 10.0274 21.7588 10.225L20.0014 15.7575C16.986 15.7936 14.2543 16.6054 12.2452 17.909C11.7415 17.4437 11.0732 17.1525 10.3337 17.1525C8.77716 17.1525 7.51172 18.4137 7.51172 19.9639C7.51172 20.9945 8.07803 21.8881 8.91103 22.3769C8.85578 22.6765 8.81966 22.9793 8.81966 23.2874C8.81966 27.4429 13.9282 30.8237 20.2086 30.8237C26.489 30.8237 31.5986 27.4429 31.5986 23.2874C31.5986 22.9963 31.5678 22.7094 31.5189 22.4268C32.4029 21.9519 33.0117 21.0328 33.0117 19.9639ZM14.7112 21.8934C14.7112 20.9712 15.4656 20.22 16.3921 20.22C17.3186 20.22 18.0719 20.9712 18.0719 21.8934C18.0719 22.8157 17.3186 23.5658 16.3921 23.5658C15.4656 23.5658 14.7112 22.8157 14.7112 21.8934ZM24.3385 26.8542C23.4917 27.6968 22.1625 28.1069 20.2755 28.1069L20.2617 28.1037L20.2479 28.1069C18.3598 28.1069 17.0307 27.6968 16.1849 26.8542C16.0308 26.7012 16.0308 26.4515 16.1849 26.2985C16.339 26.1445 16.5897 26.1445 16.7438 26.2985C17.4344 26.986 18.5808 27.3196 20.2479 27.3196L20.2617 27.3228L20.2755 27.3196C21.9426 27.3196 23.089 26.9849 23.7797 26.2975C23.9337 26.1434 24.1845 26.1445 24.3385 26.2975C24.4926 26.4515 24.4926 26.7002 24.3385 26.8542ZM24.1377 23.5658C23.2112 23.5658 22.4579 22.8157 22.4579 21.8934C22.4579 20.9712 23.2112 20.22 24.1377 20.22C25.0642 20.22 25.8175 20.9712 25.8175 21.8934C25.8175 22.8157 25.0642 23.5658 24.1377 23.5658Z" fill="white"/>
</g>
<defs>
<clipPath id="clip0_233_485">
<rect width="40" height="40" fill="white"/>
</clipPath>
</defs>
</svg>
