<svg width="40" height="40" viewBox="0 0 40 40" fill="none" xmlns="http://www.w3.org/2000/svg">
<g clip-path="url(#clip0_233_473)">
<path d="M20 39.375C30.7005 39.375 39.375 30.7005 39.375 20C39.375 9.29948 30.7005 0.625 20 0.625C9.29948 0.625 0.625 9.29948 0.625 20C0.625 30.7005 9.29948 39.375 20 39.375Z" fill="#3B5998"/>
<path d="M21.3125 29.375V20.8125H24.1875L24.625 17.5H21.3125V15.375C21.3125 14.4375 21.5625 13.75 22.9375 13.75H24.6875V10.75C24.375 10.6875 23.3125 10.625 22.125 10.625C19.5625 10.625 17.8125 12.1875 17.8125 15V17.5H15V20.8125H17.875V29.375H21.3125Z" fill="white"/>
</g>
<defs>
<clipPath id="clip0_233_473">
<rect width="40" height="40" fill="white"/>
</clipPath>
</defs>
</svg>
