<svg width="26" height="25" viewBox="0 0 26 25" fill="none" xmlns="http://www.w3.org/2000/svg">
<path fill-rule="evenodd" clip-rule="evenodd" d="M6.50098 17.5H19.501C23.0908 17.5 26.001 20.2982 26.001 23.75C26.001 24.4404 25.4189 25 24.701 25C24.0343 25 23.4848 24.5174 23.4097 23.8958L23.3944 23.5297C23.2801 21.6341 21.7016 20.1162 19.7301 20.0064L19.501 20H6.50098C4.34707 20 2.60098 21.6789 2.60098 23.75C2.60098 24.4404 2.01895 25 1.30098 25C0.583006 25 0.000976562 24.4404 0.000976562 23.75C0.000976562 20.3891 2.75998 17.6477 6.21902 17.5058L6.50098 17.5H19.501H6.50098ZM13.001 0C17.3088 0 20.801 3.35786 20.801 7.5C20.801 11.6421 17.3088 15 13.001 15C8.69316 15 5.20098 11.6421 5.20098 7.5C5.20098 3.35786 8.69316 0 13.001 0ZM13.001 2.5C10.1291 2.5 7.80098 4.73858 7.80098 7.5C7.80098 10.2614 10.1291 12.5 13.001 12.5C15.8729 12.5 18.201 10.2614 18.201 7.5C18.201 4.73858 15.8729 2.5 13.001 2.5Z" fill="#252424"/>
</svg>
