<svg width="40" height="40" viewBox="0 0 40 40" fill="none" xmlns="http://www.w3.org/2000/svg">
<g clip-path="url(#clip0_233_482)">
<path d="M20 39.375C30.7005 39.375 39.375 30.7005 39.375 20C39.375 9.29948 30.7005 0.625 20 0.625C9.29948 0.625 0.625 9.29948 0.625 20C0.625 30.7005 9.29948 39.375 20 39.375Z" fill="#007FB1"/>
<path d="M12.75 27.5H16.125V16.625H12.75V27.5ZM14.4375 11.25C13.375 11.25 12.5 12.125 12.5 13.1875C12.5 14.25 13.375 15.125 14.4375 15.125C15.5 15.125 16.375 14.25 16.375 13.1875C16.375 12.125 15.5 11.25 14.4375 11.25ZM24.6875 16.375C23.0625 16.375 21.9375 17.25 21.5 18.125H21.4375V16.625H18.1875V27.5H21.5625V22.125C21.5625 20.6875 21.8125 19.3125 23.5625 19.3125C25.3125 19.3125 25.3125 20.9375 25.3125 22.1875V27.5H28.75V21.5625C28.75 18.625 28.125 16.375 24.6875 16.375Z" fill="white"/>
</g>
<defs>
<clipPath id="clip0_233_482">
<rect width="40" height="40" fill="white"/>
</clipPath>
</defs>
</svg>
