<svg width="20" height="20" viewBox="0 0 20 20" fill="none" xmlns="http://www.w3.org/2000/svg">
<path fill-rule="evenodd" clip-rule="evenodd" d="M14.7764 0.49162C15.084 0.176829 15.5011 0 15.936 0C16.3709 0 16.788 0.176829 17.0956 0.49162L19.5199 2.97407C19.8273 3.28909 20 3.7162 20 4.16154C20 4.60688 19.8273 5.034 19.5199 5.34901L16.9016 8.03017L16.8903 8.04265L6.73951 17.9638C6.55406 18.1454 6.32963 18.2798 6.08422 18.3564L0.90663 19.9692C0.784854 20.0069 0.655368 20.0101 0.531972 19.9783C0.408575 19.9466 0.295892 19.8812 0.205932 19.7891C0.115972 19.697 0.0521066 19.5816 0.0211425 19.4553C-0.00982171 19.3289 -0.00672438 19.1963 0.0301045 19.0716L1.59848 13.7918C1.68073 13.5155 1.8312 13.2655 2.03533 13.0661L12.1637 3.16606L14.7764 0.49162ZM12.6436 4.6876L3.00654 14.1077C2.97723 14.1361 2.9556 14.1718 2.94373 14.2113L1.75878 18.199L5.67455 16.9789C5.70971 16.9678 5.74182 16.9484 5.7683 16.9223L15.3988 7.50891L12.6427 4.6876H12.6436ZM16.4047 6.50384L18.5262 4.33241C18.548 4.31012 18.5653 4.28364 18.5772 4.25448C18.589 4.22532 18.595 4.19407 18.595 4.1625C18.595 4.13093 18.589 4.09968 18.5772 4.07052C18.5653 4.04136 18.548 4.01488 18.5262 3.99259L16.1019 1.51014C16.0802 1.48779 16.0543 1.47005 16.0258 1.45796C15.9973 1.44586 15.9668 1.43963 15.936 1.43963C15.9052 1.43963 15.8746 1.44586 15.8462 1.45796C15.8177 1.47005 15.7918 1.48779 15.7701 1.51014L13.6495 3.68156L16.4047 6.50384Z" fill="white" fill-opacity="0.5"/>
</svg>
