<svg width="30" height="28" viewBox="0 0 30 28" fill="none" xmlns="http://www.w3.org/2000/svg">
<g filter="url(#filter0_d_233_246)">
<path d="M26 10.1333C26 8.73333 24.8312 8 23.25 8H18.6437C18.9875 6.8 19.125 5.66666 19.125 4.66666C19.125 0.799999 18.025 0 17.0625 0C16.4437 0 15.9625 0.0666669 15.3437 0.4C15.1375 0.533333 15.0687 0.666666 15 0.866666L14.3125 4.46666C13.5562 6.33333 11.7 8 10.1875 9.13333V18.6667C10.7375 18.6667 11.2875 18.9333 11.975 19.2667C12.7313 19.6 13.4875 20 14.3125 20H20.8437C22.2187 20 23.25 18.9333 23.25 18C23.25 17.8 23.25 17.6667 23.1812 17.5333C24.0062 17.2 24.625 16.5333 24.625 15.6667C24.625 15.2667 24.5562 14.9333 24.4187 14.6C24.9687 14.2667 25.45 13.6667 25.45 13C25.45 12.6 25.2437 12.2 25.0375 11.8667C25.5875 11.4667 26 10.8 26 10.1333ZM24.5562 10.1333C24.5562 11 23.6625 11.0667 23.525 11.4667C23.3875 11.9333 24.075 12.0667 24.075 12.8667C24.075 13.6667 23.0437 13.6667 22.9062 14.1333C22.7687 14.6667 23.25 14.8 23.25 15.6V15.7333C23.1125 16.4 22.0812 16.4667 21.875 16.7333C21.6687 17.0667 21.875 17.2 21.875 17.9333C21.875 18.3333 21.3937 18.6 20.8437 18.6H14.3125C13.7625 18.6 13.2125 18.3333 12.525 18C11.975 17.7333 11.425 17.4667 10.875 17.3333V10.3333C12.5937 9.06666 14.7937 7.2 15.6187 4.86666V4.73333L16.2375 1.4C16.5125 1.33333 16.7187 1.33333 17.0625 1.33333C17.2 1.33333 17.75 2.13333 17.75 4.66666C17.75 5.66666 17.5437 6.73333 17.2 8H17.0625C16.65 8 16.375 8.26666 16.375 8.66666C16.375 9.06666 16.65 9.33333 17.0625 9.33333H23.25C23.9375 9.33333 24.5562 9.66666 24.5562 10.1333Z" fill="white"/>
<path d="M9.5 20H5.375C4.61875 20 4 19.4 4 18.6667V9.33333C4 8.6 4.61875 8 5.375 8H9.5C10.2562 8 10.875 8.6 10.875 9.33333V18.6667C10.875 19.4 10.2562 20 9.5 20ZM5.375 9.33333V18.6667H9.5V9.33333H5.375Z" fill="white"/>
</g>
<defs>
<filter id="filter0_d_233_246" x="0" y="0" width="30" height="28" filterUnits="userSpaceOnUse" color-interpolation-filters="sRGB">
<feFlood flood-opacity="0" result="BackgroundImageFix"/>
<feColorMatrix in="SourceAlpha" type="matrix" values="0 0 0 0 0 0 0 0 0 0 0 0 0 0 0 0 0 0 127 0" result="hardAlpha"/>
<feOffset dy="4"/>
<feGaussianBlur stdDeviation="2"/>
<feComposite in2="hardAlpha" operator="out"/>
<feColorMatrix type="matrix" values="0 0 0 0 0 0 0 0 0 0 0 0 0 0 0 0 0 0 0.25 0"/>
<feBlend mode="normal" in2="BackgroundImageFix" result="effect1_dropShadow_233_246"/>
<feBlend mode="normal" in="SourceGraphic" in2="effect1_dropShadow_233_246" result="shape"/>
</filter>
</defs>
</svg>
