<svg width="40" height="40" viewBox="0 0 40 40" fill="none" xmlns="http://www.w3.org/2000/svg">
<g clip-path="url(#clip0_233_479)">
<path d="M20 39.375C30.7005 39.375 39.375 30.7005 39.375 20C39.375 9.29948 30.7005 0.625 20 0.625C9.29948 0.625 0.625 9.29948 0.625 20C0.625 30.7005 9.29948 39.375 20 39.375Z" fill="#25D366"/>
<path d="M26.4516 21.208C26.128 21.0462 24.5471 20.2727 24.251 20.1659C23.9565 20.0575 23.7413 20.0041 23.5261 20.3277C23.3125 20.6465 22.6944 21.3682 22.5066 21.5818C22.3189 21.7921 22.1312 21.8083 21.8109 21.6627C21.4872 21.5009 20.4484 21.1611 19.2186 20.0607C18.2607 19.2031 17.6167 18.1513 17.4273 17.8277C17.2396 17.5041 17.4063 17.3261 17.5681 17.1643C17.7137 17.0186 17.8917 16.7921 18.0536 16.5979C18.2121 16.4037 18.2639 16.2743 18.3739 16.0639C18.4807 15.8374 18.4273 15.6594 18.3464 15.4976C18.2655 15.3358 17.6215 13.75 17.3529 13.1189C17.094 12.4879 16.827 12.5688 16.628 12.5688C16.4419 12.5526 16.2267 12.5526 16.0131 12.5526C15.7963 12.5526 15.4467 12.6335 15.1522 12.941C14.8577 13.2646 14.026 14.0413 14.026 15.6109C14.026 17.1805 15.1798 18.7015 15.34 18.928C15.5018 19.1384 17.6118 22.3746 20.8416 23.7662C21.6118 24.0899 22.2105 24.284 22.6798 24.4459C23.45 24.6886 24.1523 24.6562 24.7073 24.5753C25.327 24.4782 26.6135 23.7986 26.8821 23.0381C27.1571 22.2776 27.1571 21.6465 27.0762 21.5009C26.9953 21.3552 26.785 21.2743 26.4614 21.1287M20.5859 29.1562H20.5697C18.6604 29.1562 16.7671 28.6384 15.1167 27.6675L14.7283 27.4362L10.683 28.4879L11.7671 24.5559L11.5082 24.1514C10.4403 22.4523 9.87391 20.4944 9.87391 18.4782C9.87391 12.6044 14.6797 7.81472 20.5989 7.81472C23.4629 7.81472 26.149 8.93123 28.1717 10.9539C30.1944 12.9604 31.3109 15.6465 31.3109 18.4944C31.306 24.3682 26.5002 29.1578 20.594 29.1578M29.7122 9.41505C27.2526 7.0364 24.0164 5.69336 20.5697 5.69336C13.4694 5.69336 7.68944 11.4474 7.68458 18.5219C7.68458 20.7824 8.27682 22.9879 9.40465 24.9361L7.57617 31.5834L14.4095 29.8002C16.293 30.8197 18.4128 31.3601 20.5697 31.3617H20.5762C27.6798 31.3617 33.463 25.606 33.4662 18.53C33.4662 15.1044 32.128 11.8795 29.696 9.4555" fill="white"/>
</g>
<defs>
<clipPath id="clip0_233_479">
<rect width="40" height="40" fill="white"/>
</clipPath>
</defs>
</svg>
