<svg width="15" height="14" viewBox="0 0 15 14" fill="none" xmlns="http://www.w3.org/2000/svg">
<path d="M14.0572 3.29928L5.64933 13.4308C5.57877 13.516 5.49471 13.5836 5.402 13.6299C5.30929 13.6762 5.20977 13.7002 5.1092 13.7006C5.00862 13.7009 4.90899 13.6776 4.81605 13.6319C4.72312 13.5863 4.63872 13.5192 4.56775 13.4346L0.222486 8.25584C0.081674 8.08837 0.00180154 7.86198 3.01033e-05 7.62533C-0.00174133 7.38868 0.0747298 7.16064 0.213013 6.99022L1.68459 5.17709C1.75507 5.09031 1.83945 5.02115 1.93277 4.97369C2.0261 4.92622 2.12648 4.90141 2.228 4.90071C2.32952 4.90001 2.43013 4.92344 2.52391 4.96962C2.6177 5.0158 2.70275 5.08379 2.77407 5.16959L5.11091 7.98303L11.512 0.269281C11.5828 0.18399 11.6671 0.116262 11.7602 0.0700338C11.8532 0.0238059 11.9531 0 12.0539 0C12.1548 0 12.2546 0.0238059 12.3477 0.0700338C12.4407 0.116262 12.5251 0.18399 12.5959 0.269281L14.058 2.03178C14.3501 2.38241 14.3501 2.94772 14.058 3.29928H14.0572Z" fill="white"/>
</svg>
