<svg width="31" height="29" viewBox="0 0 31 29" fill="none" xmlns="http://www.w3.org/2000/svg">
<path d="M27.2617 0H3.27141C2.40377 0 1.57168 0.325845 0.958172 0.905853C0.344665 1.48586 0 2.27252 0 3.09277L0 25.7731C0 26.5934 0.344665 27.38 0.958172 27.96C1.57168 28.5401 2.40377 28.8659 3.27141 28.8659H12.6256V19.0521H8.33186V14.4329H12.6256V10.9123C12.6256 6.90784 15.1473 4.69586 19.0096 4.69586C20.8593 4.69586 22.7935 5.00772 22.7935 5.00772V8.93812H20.6623C18.5625 8.93812 17.9075 10.1701 17.9075 11.4336V14.4329H22.5952L21.8455 19.0521H17.9075V28.8659H27.2617C28.1293 28.8659 28.9614 28.5401 29.5749 27.96C30.1884 27.38 30.5331 26.5934 30.5331 25.7731V3.09277C30.5331 2.27252 30.1884 1.48586 29.5749 0.905853C28.9614 0.325845 28.1293 0 27.2617 0Z" fill="white"/>
</svg>
