<svg width="32" height="29" viewBox="0 0 32 29" fill="none" xmlns="http://www.w3.org/2000/svg">
<path d="M16.0034 7.16637C11.6712 7.16637 8.1768 10.4707 8.1768 14.5672C8.1768 18.6638 11.6712 21.9681 16.0034 21.9681C20.3356 21.9681 23.8299 18.6638 23.8299 14.5672C23.8299 10.4707 20.3356 7.16637 16.0034 7.16637ZM16.0034 19.3787C13.2038 19.3787 10.9151 17.221 10.9151 14.5672C10.9151 11.9135 13.197 9.75571 16.0034 9.75571C18.8098 9.75571 21.0916 11.9135 21.0916 14.5672C21.0916 17.221 18.8029 19.3787 16.0034 19.3787ZM25.9756 6.86364C25.9756 7.82337 25.1582 8.58986 24.1501 8.58986C23.1351 8.58986 22.3246 7.81693 22.3246 6.86364C22.3246 5.91036 23.1419 5.13742 24.1501 5.13742C25.1582 5.13742 25.9756 5.91036 25.9756 6.86364ZM31.1592 8.61563C31.0434 6.30326 30.4849 4.25499 28.6934 2.56741C26.9088 0.879837 24.7427 0.351665 22.2973 0.235725C19.777 0.100461 12.2229 0.100461 9.70261 0.235725C7.26405 0.345224 5.09795 0.873396 3.30649 2.56097C1.51503 4.24855 0.963291 6.29682 0.840682 8.60919C0.697637 10.9924 0.697637 18.1356 0.840682 20.5188C0.956479 22.8312 1.51503 24.8795 3.30649 26.567C5.09795 28.2546 7.25723 28.7828 9.70261 28.8987C12.2229 29.034 19.777 29.034 22.2973 28.8987C24.7427 28.7892 26.9088 28.2611 28.6934 26.567C30.4781 24.8795 31.0366 22.8312 31.1592 20.5188C31.3023 18.1356 31.3023 10.9988 31.1592 8.61563ZM27.9033 23.076C27.372 24.3384 26.3434 25.311 25.0015 25.8199C22.9921 26.5735 18.224 26.3996 16.0034 26.3996C13.7828 26.3996 9.00782 26.567 7.0052 25.8199C5.67012 25.3175 4.64157 24.3449 4.10345 23.076C3.30649 21.1758 3.4904 16.667 3.4904 14.5672C3.4904 12.4674 3.3133 7.95219 4.10345 6.0585C4.63476 4.79604 5.66331 3.82343 7.0052 3.31458C9.01463 2.56097 13.7828 2.73488 16.0034 2.73488C18.224 2.73488 22.9989 2.56741 25.0015 3.31458C26.3366 3.81699 27.3652 4.7896 27.9033 6.0585C28.7002 7.95863 28.5163 12.4674 28.5163 14.5672C28.5163 16.667 28.7002 21.1823 27.9033 23.076Z" fill="white"/>
</svg>
