<svg width="31" height="24" viewBox="0 0 31 24" fill="none" xmlns="http://www.w3.org/2000/svg">
<path d="M27.8614 6.02149C27.8808 6.2779 27.8808 6.53436 27.8808 6.79078C27.8808 14.6117 21.5843 23.6232 10.0762 23.6232C6.5308 23.6232 3.23727 22.6524 0.466797 20.9674C0.970536 21.0223 1.45483 21.0406 1.97795 21.0406C4.90336 21.0406 7.59637 20.1065 9.74687 18.513C6.99578 18.4581 4.69028 16.7547 3.89594 14.4102C4.28345 14.4651 4.6709 14.5018 5.07779 14.5018C5.63962 14.5018 6.2015 14.4285 6.72456 14.3003C3.85724 13.7508 1.70667 11.3698 1.70667 8.49415V8.42092C2.53972 8.8605 3.50849 9.13524 4.53523 9.17183C2.8497 8.10948 1.74544 6.29622 1.74544 4.24482C1.74544 3.14588 2.05536 2.1385 2.59786 1.25933C5.67832 4.84925 10.3087 7.19366 15.5008 7.45013C15.404 7.01054 15.3458 6.55269 15.3458 6.09478C15.3458 2.8345 18.1357 0.178711 21.6036 0.178711C23.4054 0.178711 25.0328 0.893032 26.1758 2.04694C27.5901 1.79053 28.9463 1.29597 30.1475 0.618298C29.6825 1.99203 28.6944 3.14593 27.3964 3.87852C28.6557 3.75037 29.8763 3.42061 30.9999 2.96276C30.1476 4.13493 29.082 5.1789 27.8614 6.02149Z" fill="white"/>
</svg>
