<svg width="88" height="64" viewBox="0 0 88 64" fill="none" xmlns="http://www.w3.org/2000/svg">
<path d="M87.9076 18.608C87.1288 8.176 77.506 0 66 0H22C10.2124 0 0.6248 8.304 0.0572001 18.948C0.0132001 19.264 0 19.592 0 19.96V50C0 53.7 1.6412 57.312 4.4968 59.904C7.3568 62.508 11.33 64 15.4 64C21.6876 64 25.6256 59.756 29.4316 55.652C30.8308 54.144 32.274 52.584 33.8316 51.24C34.8744 50.336 38.6804 48.652 40.6032 48.236C41.712 48 46.2924 48.004 47.3836 48.232C49.3152 48.648 53.1212 50.336 54.164 51.236C55.7216 52.584 57.1648 54.144 58.564 55.652C62.3744 59.756 66.3124 64 72.6 64C76.67 64 80.6432 62.508 83.4944 59.912C86.3588 57.312 88 53.7 88 50V20C88 19.62 87.9824 19.28 87.9384 18.96C87.9296 18.848 87.9164 18.732 87.9076 18.608ZM79.2 50C79.2 51.588 78.5004 53.136 77.2728 54.252C76.0496 55.364 74.3468 56 72.6 56C70.4 56 68.0328 53.448 65.2916 50.492C63.8132 48.904 62.1368 47.096 60.236 45.444C57.6972 43.248 52.2236 41.052 49.4076 40.448C47.5772 40.06 45.232 40 44 40C42.768 40 40.4228 40.06 38.588 40.452C35.7808 41.052 30.3072 43.248 27.7684 45.448C25.8632 47.096 24.1912 48.9 22.7128 50.492C19.9672 53.448 17.6 56 15.4 56C13.6532 56 11.9504 55.364 10.7228 54.248C9.4996 53.136 8.8 51.588 8.8 50L8.7604 20.088C8.8044 19.884 8.8308 19.676 8.8396 19.468C9.1036 13.04 14.8852 8 22 8H66C72.8948 8 78.6588 12.9 79.112 18.88C79.112 19.12 79.134 19.36 79.156 19.36C79.156 19.616 79.1428 19.748 79.2 20V50Z" fill="black"/>
<path d="M62.3512 40.6362C64.811 40.6362 66.805 38.6147 66.805 36.1211C66.805 33.6275 64.811 31.606 62.3512 31.606C59.8915 31.606 57.8975 33.6275 57.8975 36.1211C57.8975 38.6147 59.8915 40.6362 62.3512 40.6362Z" fill="black"/>
<path d="M71.2604 31.6064C73.7202 31.6064 75.7142 29.5849 75.7142 27.0913C75.7142 24.5977 73.7202 22.5762 71.2604 22.5762C68.8007 22.5762 66.8066 24.5977 66.8066 27.0913C66.8066 29.5849 68.8007 31.6064 71.2604 31.6064Z" fill="black"/>
<path d="M62.3512 22.5752C64.811 22.5752 66.805 20.5537 66.805 18.0601C66.805 15.5664 64.811 13.5449 62.3512 13.5449C59.8915 13.5449 57.8975 15.5664 57.8975 18.0601C57.8975 20.5537 59.8915 22.5752 62.3512 22.5752Z" fill="black"/>
<path d="M53.443 31.6064C55.9028 31.6064 57.8968 29.5849 57.8968 27.0913C57.8968 24.5977 55.9028 22.5762 53.443 22.5762C50.9833 22.5762 48.9893 24.5977 48.9893 27.0913C48.9893 29.5849 50.9833 31.6064 53.443 31.6064Z" fill="black"/>
<path d="M26.7259 36.1216C31.6455 36.1216 35.6335 32.0786 35.6335 27.0913C35.6335 22.104 31.6455 18.061 26.7259 18.061C21.8064 18.061 17.8184 22.104 17.8184 27.0913C17.8184 32.0786 21.8064 36.1216 26.7259 36.1216Z" fill="black"/>
</svg>
