<svg width="40" height="40" viewBox="0 0 40 40" fill="none" xmlns="http://www.w3.org/2000/svg">
<g clip-path="url(#clip0_233_476)">
<path d="M20 39.375C30.7005 39.375 39.375 30.7005 39.375 20C39.375 9.29948 30.7005 0.625 20 0.625C9.29948 0.625 0.625 9.29948 0.625 20C0.625 30.7005 9.29948 39.375 20 39.375Z" fill="#00ACED"/>
<path d="M30 13.8125C29.25 14.125 28.5 14.375 27.625 14.4375C28.5 13.9375 29.125 13.125 29.4375 12.1875C28.625 12.6875 27.75 13 26.8125 13.1875C26.0625 12.375 25 11.875 23.875 11.875C21.625 11.875 19.75 13.6875 19.75 16C19.75 16.3125 19.8125 16.625 19.875 16.9375C16.4375 16.75 13.4375 15.125 11.4375 12.625C11.0625 13.25 10.875 13.9375 10.875 14.6875C10.875 16.125 11.625 17.375 12.6875 18.125C12 18.125 11.375 17.9375 10.8125 17.625V17.6875C10.8125 19.6875 12.25 21.3125 14.125 21.6875C13.75 21.75 13.4375 21.8125 13.0625 21.8125C12.8125 21.8125 12.5625 21.8125 12.3125 21.75C12.8125 23.375 14.375 24.5625 16.125 24.625C14.75 25.75 12.9375 26.375 11 26.375C10.6875 26.375 10.3125 26.375 10 26.3125C11.8125 27.5 14 28.125 16.3125 28.125C23.875 28.125 28 21.875 28 16.4375C28 16.25 28 16.0625 28 15.9375C28.75 15.3125 29.4375 14.625 30 13.8125Z" fill="white"/>
</g>
<defs>
<clipPath id="clip0_233_476">
<rect width="40" height="40" fill="white"/>
</clipPath>
</defs>
</svg>
