<svg width="29" height="31" viewBox="0 0 29 31" fill="none" xmlns="http://www.w3.org/2000/svg">
<g filter="url(#filter0_d_555_1907)">
<path d="M14.3002 22.5511C8.65778 22.5511 4.08398 17.9694 4.08398 12.3172C4.08398 6.66498 8.65778 2.08325 14.3002 2.08325C19.9426 2.08325 24.5164 6.66498 24.5164 12.3172C24.5164 17.9694 19.9426 22.5511 14.3002 22.5511ZM14.3002 20.5043C16.4678 20.5043 18.5466 19.6417 20.0794 18.1063C21.6121 16.571 22.4732 14.4885 22.4732 12.3172C22.4732 10.1458 21.6121 8.06338 20.0794 6.52799C18.5466 4.99261 16.4678 4.13004 14.3002 4.13004C12.1326 4.13004 10.0538 4.99261 8.52104 6.52799C6.98831 8.06338 6.12723 10.1458 6.12723 12.3172C6.12723 14.4885 6.98831 16.571 8.52104 18.1063C10.0538 19.6417 12.1326 20.5043 14.3002 20.5043ZM10.7245 14.364H16.3434C16.4789 14.364 16.6088 14.31 16.7046 14.2141C16.8004 14.1181 16.8543 13.988 16.8543 13.8523C16.8543 13.7165 16.8004 13.5864 16.7046 13.4904C16.6088 13.3945 16.4789 13.3406 16.3434 13.3406H12.257C11.5796 13.3406 10.9299 13.071 10.451 12.5912C9.97199 12.1114 9.7029 11.4606 9.7029 10.7821C9.7029 10.1035 9.97199 9.45277 10.451 8.97296C10.9299 8.49316 11.5796 8.2236 12.257 8.2236H13.2786V6.17682H15.3218V8.2236H17.8759V10.2704H12.257C12.1215 10.2704 11.9916 10.3243 11.8958 10.4203C11.8 10.5162 11.7461 10.6464 11.7461 10.7821C11.7461 10.9178 11.8 11.0479 11.8958 11.1439C11.9916 11.2399 12.1215 11.2938 12.257 11.2938H16.3434C17.0208 11.2938 17.6705 11.5633 18.1494 12.0431C18.6284 12.5229 18.8975 13.1737 18.8975 13.8523C18.8975 14.5308 18.6284 15.1816 18.1494 15.6614C17.6705 16.1412 17.0208 16.4107 16.3434 16.4107H15.3218V18.4575H13.2786V16.4107H10.7245V14.364Z" fill="black"/>
</g>
<defs>
<filter id="filter0_d_555_1907" x="0.0839844" y="2.08325" width="28.4326" height="28.4679" filterUnits="userSpaceOnUse" color-interpolation-filters="sRGB">
<feFlood flood-opacity="0" result="BackgroundImageFix"/>
<feColorMatrix in="SourceAlpha" type="matrix" values="0 0 0 0 0 0 0 0 0 0 0 0 0 0 0 0 0 0 127 0" result="hardAlpha"/>
<feOffset dy="4"/>
<feGaussianBlur stdDeviation="2"/>
<feComposite in2="hardAlpha" operator="out"/>
<feColorMatrix type="matrix" values="0 0 0 0 0 0 0 0 0 0 0 0 0 0 0 0 0 0 0.25 0"/>
<feBlend mode="normal" in2="BackgroundImageFix" result="effect1_dropShadow_555_1907"/>
<feBlend mode="normal" in="SourceGraphic" in2="effect1_dropShadow_555_1907" result="shape"/>
</filter>
</defs>
</svg>
